<?xml version="1.0" encoding="UTF-8" standalone="no"?>
<svg
   xmlns:dc="http://purl.org/dc/elements/1.1/"
   xmlns:cc="http://creativecommons.org/ns#"
   xmlns:rdf="http://www.w3.org/1999/02/22-rdf-syntax-ns#"
   xmlns:svg="http://www.w3.org/2000/svg"
   xmlns="http://www.w3.org/2000/svg"
   xmlns:xlink="http://www.w3.org/1999/xlink"
   xmlns:sodipodi="http://sodipodi.sourceforge.net/DTD/sodipodi-0.dtd"
   xmlns:inkscape="http://www.inkscape.org/namespaces/inkscape"
   id="svg2"
   viewBox="0 0 217.7 251.2"
   version="1.1"
   sodipodi:docname="slider-black-one-slider.svg"
   inkscape:version="0.92.1 r15371">
  <sodipodi:namedview
     pagecolor="#ffffff"
     bordercolor="#666666"
     borderopacity="1"
     objecttolerance="10"
     gridtolerance="10"
     guidetolerance="10"
     inkscape:pageopacity="0"
     inkscape:pageshadow="2"
     inkscape:window-width="1600"
     inkscape:window-height="881"
     id="namedview222"
     showgrid="false"
     inkscape:zoom="1.9845155"
     inkscape:cx="266.48862"
     inkscape:cy="129.27111"
     inkscape:window-x="-9"
     inkscape:window-y="-9"
     inkscape:window-maximized="1"
     inkscape:current-layer="svg2" />
  <defs
     id="defs4">
    <linearGradient
       id="linearGradient7248">
      <stop
         id="stop7250"
         offset="0" />
      <stop
         id="stop7252"
         stop-opacity="0"
         offset="1" />
    </linearGradient>
    <linearGradient
       id="linearGradient7236">
      <stop
         id="stop7238"
         stop-color="#4e9a06"
         offset="0" />
      <stop
         id="stop7244"
         stop-color="#8ae234"
         offset=".469" />
      <stop
         id="stop7240"
         stop-color="#73d216"
         stop-opacity="0"
         offset="1" />
    </linearGradient>
    <linearGradient
       id="linearGradient7064">
      <stop
         id="stop7066"
         stop-color="#fff"
         offset="0" />
      <stop
         id="stop7068"
         stop-color="#fff"
         stop-opacity="0"
         offset="1" />
    </linearGradient>
    <linearGradient
       id="linearGradient7045"
       x1="132.67"
       xlink:href="#linearGradient7064"
       gradientUnits="userSpaceOnUse"
       y1="160.57"
       gradientTransform="matrix(2,0,0,0.15143,-198.07,38.116)"
       x2="132.87"
       y2="160.57" />
    <linearGradient
       id="linearGradient7098"
       x1="125.93"
       xlink:href="#linearGradient7064"
       gradientUnits="userSpaceOnUse"
       y1="94.789"
       gradientTransform="translate(0.10355,-0.38388)"
       x2="125.93"
       y2="101.03" />
    <linearGradient
       id="linearGradient7102"
       x1="125.93"
       gradientUnits="userSpaceOnUse"
       y1="83.122"
       gradientTransform="matrix(1 0 0 -1 -.14645 224.33)"
       x2="125.93"
       y2="101.03">
      <stop
         id="stop7086"
         offset="0" />
      <stop
         id="stop7088"
         stop-color="#5f605d"
         offset="1" />
    </linearGradient>
    <radialGradient
       id="radialGradient7125"
       xlink:href="#linearGradient7248"
       gradientUnits="userSpaceOnUse"
       cy="114.36"
       cx="129"
       gradientTransform="matrix(1.0385,0,0,1.4898,-4.4615,-55.141)"
       r="13" />
    <linearGradient
       id="linearGradient7129"
       x1="132.67"
       xlink:href="#linearGradient7064"
       gradientUnits="userSpaceOnUse"
       y1="160.57"
       gradientTransform="matrix(2,0,0,0.65935,-198.07,59.563)"
       x2="132.87"
       y2="160.57" />
    <linearGradient
       id="linearGradient7222"
       x1="132.67"
       xlink:href="#linearGradient7064"
       gradientUnits="userSpaceOnUse"
       y1="160.57"
       gradientTransform="matrix(2,0,0,0.20627,-158.067,172.619)"
       x2="132.87"
       y2="160.57" />
    <linearGradient
       id="linearGradient7230"
       x1="132.67"
       xlink:href="#linearGradient7064"
       gradientUnits="userSpaceOnUse"
       y1="160.57"
       gradientTransform="matrix(2,0,0,0.66596,-158.067,-0.644)"
       x2="132.87"
       y2="160.57" />
    <linearGradient
       id="linearGradient7242"
       x1="86.962"
       xlink:href="#linearGradient7236"
       gradientUnits="userSpaceOnUse"
       y1="188.98"
       gradientTransform="matrix(0.47458,0,0,0.98788,15.477,-20.2375)"
       x2="107.85"
       y2="188.98" />
    <linearGradient
       id="linearGradient7254"
       x1="96.078"
       xlink:href="#linearGradient7248"
       gradientUnits="userSpaceOnUse"
       y1="133.12"
       gradientTransform="matrix(1.0784,0,0,1,-42.176,-30.2979)"
       x2="96.078"
       y2="155.22" />
    <linearGradient
       id="linearGradient7258"
       x1="86.962"
       xlink:href="#linearGradient7236"
       gradientUnits="userSpaceOnUse"
       y1="188.98"
       gradientTransform="matrix(0.47458,0,0,0.29394,55.78,150.899)"
       x2="107.85"
       y2="188.98" />
    <linearGradient
       id="linearGradient7262"
       x1="96.078"
       xlink:href="#linearGradient7248"
       gradientUnits="userSpaceOnUse"
       y1="133.12"
       gradientTransform="matrix(1.0784,0,0,1,-2.225,49.959)"
       x2="96.078"
       y2="155.22" />
    <linearGradient
       id="linearGradient7266"
       x1="96.078"
       xlink:href="#linearGradient7248"
       gradientUnits="userSpaceOnUse"
       y1="133.12"
       gradientTransform="matrix(1.0784,0,0,0.59596,-42.884,-305.639)"
       x2="96.078"
       y2="155.22" />
    <linearGradient
       id="linearGradient7270"
       x1="96.078"
       xlink:href="#linearGradient7248"
       gradientUnits="userSpaceOnUse"
       y1="133.12"
       gradientTransform="matrix(1.0784,0,0,0.81818,-2.225,-336.389)"
       x2="96.078"
       y2="155.22" />
    <linearGradient
       id="linearGradient7501"
       y2="98.616"
       gradientUnits="userSpaceOnUse"
       y1="50.691"
       x2="200.82"
       x1="173.61">
      <stop
         id="stop7490"
         stop-color="#24292b"
         offset="0" />
      <stop
         id="stop7492"
         stop-color="#5f605d"
         offset="1" />
    </linearGradient>
    <radialGradient
       id="radialGradient7503"
       gradientUnits="userSpaceOnUse"
       cy="69.706"
       cx="185.72"
       gradientTransform="matrix(1.8745,-0.49068,0.511,1.9522,-192.97,27.441)"
       r="20.506">
      <stop
         id="stop7470"
         stop-color="#86db33"
         offset="0" />
      <stop
         id="stop7472"
         offset="1" />
    </radialGradient>
    <linearGradient
       id="linearGradient7505"
       y2="72.92"
       gradientUnits="userSpaceOnUse"
       y1="35.724"
       x2="180.31"
       x1="159.81">
      <stop
         id="stop7462"
         offset="0" />
      <stop
         id="stop7464"
         stop-opacity="0"
         offset="1" />
    </linearGradient>
    <linearGradient
       id="linearGradient7547"
       x1="132.67"
       xlink:href="#linearGradient7064"
       gradientUnits="userSpaceOnUse"
       y1="160.57"
       gradientTransform="matrix(2,0,0,0.20627,-118.067,172.619)"
       x2="132.87"
       y2="160.57" />
    <linearGradient
       id="linearGradient7555"
       x1="132.67"
       xlink:href="#linearGradient7064"
       gradientUnits="userSpaceOnUse"
       y1="160.57"
       gradientTransform="matrix(2,0,0,0.66596,-118.067,-0.644)"
       x2="132.87"
       y2="160.57" />
    <linearGradient
       id="linearGradient7569"
       y2="-240.78"
       gradientUnits="userSpaceOnUse"
       y1="-240.78"
       x2="215.84"
       x1="202.59"
       gradientTransform="translate(-65.4,24.641)">
      <stop
         id="stop7565"
         stop-color="#c00"
         offset="0" />
      <stop
         id="stop7571"
         stop-color="#ef2929"
         offset=".39998" />
      <stop
         id="stop7567"
         offset="1" />
    </linearGradient>
    <linearGradient
       id="linearGradient7575"
       x1="96.078"
       xlink:href="#linearGradient7248"
       gradientUnits="userSpaceOnUse"
       y1="137.72"
       gradientTransform="matrix(1.1339,0,0,1,32.572,69.084)"
       x2="96.078"
       y2="155.22" />
    <radialGradient
       inkscape:collect="always"
       xlink:href="#linearGradient7248"
       id="radialGradient224"
       gradientUnits="userSpaceOnUse"
       gradientTransform="matrix(1.0385,0,0,1.4898,-4.4615,-55.141)"
       cx="129"
       cy="114.36"
       r="13" />
    <linearGradient
       inkscape:collect="always"
       xlink:href="#linearGradient7064"
       id="linearGradient226"
       gradientUnits="userSpaceOnUse"
       gradientTransform="translate(0.10355,-0.38388)"
       x1="125.93"
       y1="94.789"
       x2="125.93"
       y2="101.03" />
    <linearGradient
       inkscape:collect="always"
       xlink:href="#linearGradient7102"
       id="linearGradient228"
       gradientUnits="userSpaceOnUse"
       gradientTransform="matrix(1,0,0,-1,-0.14645,224.33)"
       x1="125.93"
       y1="83.122"
       x2="125.93"
       y2="101.03" />
  </defs>
  <rect
     style="fill:#2e3436;stroke:#ffffff;stroke-width:0.2;stroke-linecap:square;stroke-linejoin:round"
     x="0.1"
     y="0.099999219"
     width="217.5"
     height="251"
     id="slider-background"
     inkscape:label="#rect7031" />
  <rect
     height="175"
     x="55.25"
     width="12"
     y="48.608002"
     id="slider-back" />
  <g
     id="knob"
     transform="translate(-65.4,-24.641)">
    <rect
       style="opacity:0.88168;fill:url(#radialGradient224)"
       x="116"
       y="95.862"
       width="27"
       height="38.736"
       ry="11.122"
       id="rect7117" />
    <rect
       style="fill:#464744"
       x="113"
       y="93.362"
       width="26"
       height="36.986"
       ry="10.62"
       id="rect7092" />
    <rect
       style="fill:#5f605d"
       x="114.75"
       y="95.246002"
       width="23"
       height="32.717999"
       ry="9.3943996"
       id="rect7094" />
    <path
       inkscape:connector-curvature="0"
       style="fill:url(#linearGradient226)"
       d="m 124,94.405 c -5.0281,0 -9.0806,4.0257 -9.0806,9.0538 v 3.4186 c 0,-5.0281 4.0524,-9.0539 9.0806,-9.0539 h 4.0596 c 5.0281,0 9.0806,4.0257 9.0806,9.0539 v -3.4186 c 0,-5.0281 -4.0524,-9.0538 -9.0806,-9.0538 z"
       id="path7096" />
    <path
       inkscape:connector-curvature="0"
       style="fill:url(#linearGradient228)"
       d="m 123.75,129.54 c -5.0281,0 -9.0806,-4.0257 -9.0806,-9.0538 v -3.4186 c 0,5.0281 4.0524,9.0539 9.0806,9.0539 h 4.0596 c 5.0281,0 9.0806,-4.0257 9.0806,-9.0539 v 3.4186 c 0,5.0281 -4.0524,9.0538 -9.0806,9.0538 z"
       id="path7100" />
    <g
       transform="matrix(1.0932,0,0,1,-11.855,1.4142)"
       id="g7104">
      <rect
         style="fill:#454643"
         x="115.79"
         y="108.02"
         width="20.860001"
         height="1.7678"
         id="rect7072" />
      <rect
         style="fill:#7e7f7d"
         x="115.79"
         y="106.2"
         width="20.860001"
         height="1.7678"
         id="rect7078" />
      <rect
         style="fill:#c6c6c5"
         x="115.79"
         y="106.2"
         width="20.860001"
         height="0.35354999"
         id="rect7090" />
    </g>
    <g
       transform="matrix(1.0932,0,0,1,-11.855,7.4142)"
       id="g7109">
      <rect
         style="fill:#454643"
         x="115.79"
         y="108.02"
         width="20.860001"
         height="1.7678"
         id="rect7111" />
      <rect
         style="fill:#7e7f7d"
         x="115.79"
         y="106.2"
         width="20.860001"
         height="1.7678"
         id="rect7113" />
      <rect
         style="fill:#c6c6c5"
         x="115.79"
         y="106.2"
         width="20.860001"
         height="0.35354999"
         id="rect7115" />
    </g>
  </g>
  <rect
     style="fill:url(#linearGradient7242)"
     x="56.75"
     y="108.12901"
     width="9.8994999"
     height="115.26"
     id="slider-progress"
     inkscape:label="#slider-progress" />
  <rect
     style="fill:url(#linearGradient7254)"
     x="56.580002"
     y="107.419"
     width="9.7227001"
     height="17.500999"
     id="rect7246" />
  <rect
     style="fill:url(#linearGradient7266)"
     x="55.869995"
     y="-223.55899"
     width="9.7227001"
     height="10.43"
     transform="scale(1,-1)"
     id="rect7264" />
  <g
     id="left-slider-ticks"
     inkscape:label="#left-slider-ticks">
    <g
       id="g7282"
       transform="matrix(0.67941,0,0,1,-34.036,-24.641)">
      <rect
         id="rect7278"
         height="0.5"
         width="30.052"
         y="91.611"
         x="80.257004"
         style="fill:#c6c6c5" />
      <rect
         id="rect7280"
         y="90.144997"
         width="30.052"
         x="80.257004"
         height="1.3412" />
    </g>
    <g
       id="g7316"
       transform="matrix(0.29674,0,0,1,8.175,-24.641)">
      <rect
         id="rect7318"
         height="0.5"
         width="30.052"
         y="91.611"
         x="80.257004"
         style="fill:#c6c6c5" />
      <rect
         id="rect7320"
         y="90.144997"
         width="30.052"
         x="80.257004"
         height="1.3412" />
    </g>
    <g
       id="g7322"
       transform="matrix(0.29674,0,0,1,8.175,-14.641)">
      <rect
         id="rect7324"
         height="0.5"
         width="30.052"
         y="91.611"
         x="80.257004"
         style="fill:#c6c6c5" />
      <rect
         id="rect7326"
         y="90.144997"
         width="30.052"
         x="80.257004"
         height="1.3412" />
    </g>
    <g
       id="g7328"
       transform="matrix(0.29674,0,0,1,8.175,-4.641)">
      <rect
         id="rect7330"
         height="0.5"
         width="30.052"
         y="91.611"
         x="80.257004"
         style="fill:#c6c6c5" />
      <rect
         id="rect7332"
         y="90.144997"
         width="30.052"
         x="80.257004"
         height="1.3412" />
    </g>
    <g
       id="g7334"
       transform="matrix(0.29674,0,0,1,8.175,5.359)">
      <rect
         id="rect7336"
         height="0.5"
         width="30.052"
         y="91.611"
         x="80.257004"
         style="fill:#c6c6c5" />
      <rect
         id="rect7338"
         y="90.144997"
         width="30.052"
         x="80.257004"
         height="1.3412" />
    </g>
    <g
       id="g7340"
       transform="matrix(0.29674,0,0,1,8.175,15.359)">
      <rect
         id="rect7342"
         height="0.5"
         width="30.052"
         y="91.611"
         x="80.257004"
         style="fill:#c6c6c5" />
      <rect
         id="rect7344"
         y="90.144997"
         width="30.052"
         x="80.257004"
         height="1.3412" />
    </g>
    <g
       id="g7352"
       transform="matrix(0.67941,0,0,1,-34.036,25.359)">
      <rect
         id="rect7354"
         height="0.5"
         width="30.052"
         y="91.611"
         x="80.257004"
         style="fill:#c6c6c5" />
      <rect
         id="rect7356"
         y="90.144997"
         width="30.052"
         x="80.257004"
         height="1.3412" />
    </g>
    <g
       id="g7364"
       transform="matrix(0.29674,0,0,1,8.175,35.359)">
      <rect
         id="rect7366"
         height="0.5"
         width="30.052"
         y="91.611"
         x="80.257004"
         style="fill:#c6c6c5" />
      <rect
         id="rect7368"
         y="90.144997"
         width="30.052"
         x="80.257004"
         height="1.3412" />
    </g>
    <g
       id="g7370"
       transform="matrix(0.29674,0,0,1,8.175,45.359)">
      <rect
         id="rect7372"
         height="0.5"
         width="30.052"
         y="91.611"
         x="80.257004"
         style="fill:#c6c6c5" />
      <rect
         id="rect7374"
         y="90.144997"
         width="30.052"
         x="80.257004"
         height="1.3412" />
    </g>
    <g
       id="g7376"
       transform="matrix(0.29674,0,0,1,8.175,55.359)">
      <rect
         id="rect7378"
         height="0.5"
         width="30.052"
         y="91.611"
         x="80.257004"
         style="fill:#c6c6c5" />
      <rect
         id="rect7380"
         y="90.144997"
         width="30.052"
         x="80.257004"
         height="1.3412" />
    </g>
    <g
       id="g7388"
       transform="matrix(0.67941,0,0,1,-34.036,77.359)">
      <rect
         id="rect7390"
         height="0.5"
         width="30.052"
         y="91.611"
         x="80.257004"
         style="fill:#c6c6c5" />
      <rect
         id="rect7392"
         y="90.144997"
         width="30.052"
         x="80.257004"
         height="1.3412" />
    </g>
    <g
       id="g7394"
       transform="matrix(0.29674,0,0,1,8.175,65.359)">
      <rect
         id="rect7396"
         height="0.5"
         width="30.052"
         y="91.611"
         x="80.257004"
         style="fill:#c6c6c5" />
      <rect
         id="rect7398"
         y="90.144997"
         width="30.052"
         x="80.257004"
         height="1.3412" />
    </g>
    <g
       id="g7400"
       transform="matrix(0.29674,0,0,1,8.175,87.359)">
      <rect
         id="rect7402"
         height="0.5"
         width="30.052"
         y="91.611"
         x="80.257004"
         style="fill:#c6c6c5" />
      <rect
         id="rect7404"
         y="90.144997"
         width="30.052"
         x="80.257004"
         height="1.3412" />
    </g>
    <g
       id="g7406"
       transform="matrix(0.29674,0,0,1,8.175,97.359)">
      <rect
         id="rect7408"
         height="0.5"
         width="30.052"
         y="91.611"
         x="80.257004"
         style="fill:#c6c6c5" />
      <rect
         id="rect7410"
         y="90.144997"
         width="30.052"
         x="80.257004"
         height="1.3412" />
    </g>
    <g
       id="g7412"
       transform="matrix(0.29674,0,0,1,8.175,107.359)">
      <rect
         id="rect7414"
         height="0.5"
         width="30.052"
         y="91.611"
         x="80.257004"
         style="fill:#c6c6c5" />
      <rect
         id="rect7416"
         y="90.144997"
         width="30.052"
         x="80.257004"
         height="1.3412" />
    </g>
    <g
       id="g7418"
       transform="matrix(0.29674,0,0,1,8.175,117.359)">
      <rect
         id="rect7420"
         height="0.5"
         width="30.052"
         y="91.611"
         x="80.257004"
         style="fill:#c6c6c5" />
      <rect
         id="rect7422"
         y="90.144997"
         width="30.052"
         x="80.257004"
         height="1.3412" />
    </g>
    <g
       id="g7424"
       transform="matrix(0.67941,0,0,1,-34.036,127.359)">
      <rect
         id="rect7426"
         height="0.5"
         width="30.052"
         y="91.611"
         x="80.257004"
         style="fill:#c6c6c5" />
      <rect
         id="rect7428"
         y="90.144997"
         width="30.052"
         x="80.257004"
         height="1.3412" />
    </g>
  </g>
  <g
     id="right-slider-ticks">
    <g
       id="g7577"
       transform="matrix(0.67941,0,0,1,107.96,-24.641)">
      <rect
         id="rect7579"
         height="0.5"
         width="30.052"
         y="91.611"
         x="80.257004"
         style="fill:#c6c6c5" />
      <rect
         id="rect7581"
         y="90.144997"
         width="30.052"
         x="80.257004"
         height="1.3412" />
    </g>
    <g
       id="g7583"
       transform="matrix(0.29674,0,0,1,138.68,-24.641)">
      <rect
         id="rect7585"
         height="0.5"
         width="30.052"
         y="91.611"
         x="80.257004"
         style="fill:#c6c6c5" />
      <rect
         id="rect7587"
         y="90.144997"
         width="30.052"
         x="80.257004"
         height="1.3412" />
    </g>
    <g
       id="g7589"
       transform="matrix(0.29674,0,0,1,138.68,-14.641)">
      <rect
         id="rect7591"
         height="0.5"
         width="30.052"
         y="91.611"
         x="80.257004"
         style="fill:#c6c6c5" />
      <rect
         id="rect7593"
         y="90.144997"
         width="30.052"
         x="80.257004"
         height="1.3412" />
    </g>
    <g
       id="g7595"
       transform="matrix(0.29674,0,0,1,138.68,-4.641)">
      <rect
         id="rect7597"
         height="0.5"
         width="30.052"
         y="91.611"
         x="80.257004"
         style="fill:#c6c6c5" />
      <rect
         id="rect7599"
         y="90.144997"
         width="30.052"
         x="80.257004"
         height="1.3412" />
    </g>
    <g
       id="g7601"
       transform="matrix(0.29674,0,0,1,138.68,5.359)">
      <rect
         id="rect7603"
         height="0.5"
         width="30.052"
         y="91.611"
         x="80.257004"
         style="fill:#c6c6c5" />
      <rect
         id="rect7605"
         y="90.144997"
         width="30.052"
         x="80.257004"
         height="1.3412" />
    </g>
    <g
       id="g7607"
       transform="matrix(0.29674,0,0,1,138.68,15.359)">
      <rect
         id="rect7609"
         height="0.5"
         width="30.052"
         y="91.611"
         x="80.257004"
         style="fill:#c6c6c5" />
      <rect
         id="rect7611"
         y="90.144997"
         width="30.052"
         x="80.257004"
         height="1.3412" />
    </g>
    <g
       id="g7613"
       transform="matrix(0.67941,0,0,1,107.96,25.359)">
      <rect
         id="rect7615"
         height="0.5"
         width="30.052"
         y="91.611"
         x="80.257004"
         style="fill:#c6c6c5" />
      <rect
         id="rect7617"
         y="90.144997"
         width="30.052"
         x="80.257004"
         height="1.3412" />
    </g>
    <g
       id="g7619"
       transform="matrix(0.29674,0,0,1,138.68,35.359)">
      <rect
         id="rect7621"
         height="0.5"
         width="30.052"
         y="91.611"
         x="80.257004"
         style="fill:#c6c6c5" />
      <rect
         id="rect7623"
         y="90.144997"
         width="30.052"
         x="80.257004"
         height="1.3412" />
    </g>
    <g
       id="g7625"
       transform="matrix(0.29674,0,0,1,138.68,45.359)">
      <rect
         id="rect7627"
         height="0.5"
         width="30.052"
         y="91.611"
         x="80.257004"
         style="fill:#c6c6c5" />
      <rect
         id="rect7629"
         y="90.144997"
         width="30.052"
         x="80.257004"
         height="1.3412" />
    </g>
    <g
       id="g7631"
       transform="matrix(0.29674,0,0,1,138.68,55.359)">
      <rect
         id="rect7633"
         height="0.5"
         width="30.052"
         y="91.611"
         x="80.257004"
         style="fill:#c6c6c5" />
      <rect
         id="rect7635"
         y="90.144997"
         width="30.052"
         x="80.257004"
         height="1.3412" />
    </g>
    <g
       id="g7637"
       transform="matrix(0.67941,0,0,1,107.96,77.359)">
      <rect
         id="rect7639"
         height="0.5"
         width="30.052"
         y="91.611"
         x="80.257004"
         style="fill:#c6c6c5" />
      <rect
         id="rect7641"
         y="90.144997"
         width="30.052"
         x="80.257004"
         height="1.3412" />
    </g>
    <g
       id="g7643"
       transform="matrix(0.29674,0,0,1,138.68,65.359)">
      <rect
         id="rect7645"
         height="0.5"
         width="30.052"
         y="91.611"
         x="80.257004"
         style="fill:#c6c6c5" />
      <rect
         id="rect7647"
         y="90.144997"
         width="30.052"
         x="80.257004"
         height="1.3412" />
    </g>
    <g
       id="g7649"
       transform="matrix(0.29674,0,0,1,138.68,87.359)">
      <rect
         id="rect7651"
         height="0.5"
         width="30.052"
         y="91.611"
         x="80.257004"
         style="fill:#c6c6c5" />
      <rect
         id="rect7653"
         y="90.144997"
         width="30.052"
         x="80.257004"
         height="1.3412" />
    </g>
    <g
       id="g7655"
       transform="matrix(0.29674,0,0,1,138.68,97.359)">
      <rect
         id="rect7657"
         height="0.5"
         width="30.052"
         y="91.611"
         x="80.257004"
         style="fill:#c6c6c5" />
      <rect
         id="rect7659"
         y="90.144997"
         width="30.052"
         x="80.257004"
         height="1.3412" />
    </g>
    <g
       id="g7661"
       transform="matrix(0.29674,0,0,1,138.68,107.359)">
      <rect
         id="rect7663"
         height="0.5"
         width="30.052"
         y="91.611"
         x="80.257004"
         style="fill:#c6c6c5" />
      <rect
         id="rect7665"
         y="90.144997"
         width="30.052"
         x="80.257004"
         height="1.3412" />
    </g>
    <g
       id="g7667"
       transform="matrix(0.29674,0,0,1,138.68,117.359)">
      <rect
         id="rect7669"
         height="0.5"
         width="30.052"
         y="91.611"
         x="80.257004"
         style="fill:#c6c6c5" />
      <rect
         id="rect7671"
         y="90.144997"
         width="30.052"
         x="80.257004"
         height="1.3412" />
    </g>
    <g
       id="g7673"
       transform="matrix(0.67941,0,0,1,107.96,127.359)">
      <rect
         id="rect7675"
         height="0.5"
         width="30.052"
         y="91.611"
         x="80.257004"
         style="fill:#c6c6c5" />
      <rect
         id="rect7677"
         y="90.144997"
         width="30.052"
         x="80.257004"
         height="1.3412" />
    </g>
  </g>
  <metadata
     id="metadata219">
    <rdf:RDF>
      <cc:Work>
        <dc:format>image/svg+xml</dc:format>
        <dc:type
           rdf:resource="http://purl.org/dc/dcmitype/StillImage" />
        <cc:license
           rdf:resource="http://creativecommons.org/licenses/publicdomain/" />
        <dc:publisher>
          <cc:Agent
             rdf:about="http://openclipart.org/">
            <dc:title>Openclipart</dc:title>
          </cc:Agent>
        </dc:publisher>
        <dc:title></dc:title>
        <dc:date>2013-10-12T20:54:54</dc:date>
        <dc:description>black/grey (gray) sliders with red and green indicator lights</dc:description>
        <dc:source>https://openclipart.org/detail/184819/black-slider-by-rg1024-184819</dc:source>
        <dc:creator>
          <cc:Agent>
            <dc:title>rg1024</dc:title>
          </cc:Agent>
        </dc:creator>
        <dc:subject>
          <rdf:Bag>
            <rdf:li>control</rdf:li>
            <rdf:li>slider</rdf:li>
            <rdf:li>user interface</rdf:li>
            <rdf:li>volume control</rdf:li>
          </rdf:Bag>
        </dc:subject>
      </cc:Work>
      <cc:License
         rdf:about="http://creativecommons.org/licenses/publicdomain/">
        <cc:permits
           rdf:resource="http://creativecommons.org/ns#Reproduction" />
        <cc:permits
           rdf:resource="http://creativecommons.org/ns#Distribution" />
        <cc:permits
           rdf:resource="http://creativecommons.org/ns#DerivativeWorks" />
      </cc:License>
    </rdf:RDF>
  </metadata>
</svg>
