<?xml version="1.0" encoding="UTF-8" standalone="no"?>
<!-- Created with Inkscape (http://www.inkscape.org/) -->

<svg
   xmlns:dc="http://purl.org/dc/elements/1.1/"
   xmlns:cc="http://creativecommons.org/ns#"
   xmlns:rdf="http://www.w3.org/1999/02/22-rdf-syntax-ns#"
   xmlns:svg="http://www.w3.org/2000/svg"
   xmlns="http://www.w3.org/2000/svg"
   xmlns:xlink="http://www.w3.org/1999/xlink"
   xmlns:sodipodi="http://sodipodi.sourceforge.net/DTD/sodipodi-0.dtd"
   xmlns:inkscape="http://www.inkscape.org/namespaces/inkscape"
   width="210mm"
   height="297mm"
   viewBox="0 0 210 297"
   version="1.1"
   id="svg8"
   sodipodi:docname="sheep-head-right-ear.svg"
   inkscape:version="0.92.1 r15371">
  <defs
     id="defs2">
    <linearGradient
       inkscape:collect="always"
       x1="771.08"
       x2="761.15"
       gradientTransform="matrix(.44298 -.43220 .58013 .098788 547.99 76.171)"
       y1="-380.29"
       gradientUnits="userSpaceOnUse"
       y2="-327.99"
       id="linearGradient4254">
      <stop
         offset="0"
         style="stop-color:#edd1d1"
         id="stop4266-0-9" />
      <stop
         offset="1"
         style="stop-color:#ffffff"
         id="stop4268-2-5" />
    </linearGradient>
    <linearGradient
       inkscape:collect="always"
       xlink:href="#linearGradient4254"
       id="linearGradient72"
       gradientUnits="userSpaceOnUse"
       gradientTransform="matrix(0.44298,-0.4322,0.58013,0.098788,547.99,76.171)"
       x1="771.08"
       y1="-380.29"
       x2="761.15"
       y2="-327.99" />
  </defs>
  <sodipodi:namedview
     id="base"
     pagecolor="#ffffff"
     bordercolor="#666666"
     borderopacity="1.0"
     inkscape:pageopacity="0.0"
     inkscape:pageshadow="2"
     inkscape:zoom="0.98994949"
     inkscape:cx="-94.65786"
     inkscape:cy="1023.9403"
     inkscape:document-units="mm"
     inkscape:current-layer="layer1"
     showgrid="false"
     inkscape:window-width="1920"
     inkscape:window-height="1001"
     inkscape:window-x="-9"
     inkscape:window-y="-9"
     inkscape:window-maximized="1" />
  <metadata
     id="metadata5">
    <rdf:RDF>
      <cc:Work
         rdf:about="">
        <dc:format>image/svg+xml</dc:format>
        <dc:type
           rdf:resource="http://purl.org/dc/dcmitype/StillImage" />
        <dc:title></dc:title>
      </cc:Work>
    </rdf:RDF>
  </metadata>
  <g
     inkscape:label="Layer 1"
     inkscape:groupmode="layer"
     id="layer1">
    <g
       id="rightEar"
       transform="matrix(0.03159735,0.26269009,-0.26269009,0.03159735,-66.897717,-143.53656)"
       inkscape:transform-center-x="6.1064398"
       inkscape:transform-center-y="-11.770392">
      <path
         id="path5046-4-7-2-5-6-5"
         d="m 637.93,-318.14 c 0.95829,-0.51727 5.9891,1.7811 9.1545,0.78632 1.7094,-0.53718 1.5259,-5.9856 3.465,-6.7355 1.9974,-0.7725 5.2724,2.7151 7.6915,2.5086 2.6923,-0.22984 4.2752,-4.7327 6.9766,-5.3046 2.6565,-0.56234 4.3312,2.9464 7.3212,4.1489 0.99273,0.39925 3.8096,-3.652 7.3884,-3.2039 1.7861,0.22365 2.087,3.924 4.947,5.4101 1.8174,0.94436 5.8041,-1.8294 8.9211,0.009 3.5155,2.0744 -0.36607,5.6091 3.4996,6.8979 2.5876,0.86266 6.1915,-1.0428 7.8502,0.0127 1.4973,0.95284 0.77842,5.2628 1.7281,6.1436 1.3526,1.2545 6.0865,0.32613 6.783,1.435 1.7772,2.8293 -2.1442,8.3506 -3.4118,19.094 -0.277,2.3477 -12.899,19.533 -22.97,29.121 -1.59,1.5138 -5.7746,-0.80438 -7.0214,0.45805 -2.4132,2.4434 -1.9669,6.7478 -2.6048,7.1396 -2.8294,1.7377 -7.0071,-1.2267 -9.7131,0.47707 -2.3622,1.4873 -3.2667,7.7333 -5.5453,8.158 -2.9003,0.54056 -5.933,-2.4613 -8.3758,-1.4587 -2.5361,1.0409 -3.7324,6.9688 -6.0215,7.4263 -3.0636,0.61229 -6.436,-2.4793 -8.8658,-1.7685 -3.4098,0.99754 -4.2579,6.812 -7.1226,7.0146 -3.0684,0.21701 -4.9807,-3.1135 -7.9752,-2.86 -2.2157,0.18759 -6.4966,4.134 -8.8663,4.3425 -1.9552,0.17207 -3.3656,-3.1912 -5.5374,-3.0643 -3.4473,0.20145 -3.9348,5.5502 -6.0793,5.1266 -0.28995,-0.0573 -2.4037,-6.7855 -3.9261,-6.2661 -1.4113,0.48151 -5.8727,6.474 -6.9793,6.1559 -2.0157,-0.57955 -2.1013,-5.9019 -3.0573,-5.5032 -1.0879,0.45374 -5.212,2.3931 -6.3378,1.5426 -1.6531,-1.2488 5.2763,-7.0315 3.9284,-8.3452 -0.38555,-0.37578 -6.7435,-0.0743 -7.2989,-0.68075 -0.68171,-0.74448 5.8184,-5.3174 5.0484,-6.2249 -1.793,-2.1132 -3.5749,-4.3926 -4.1792,-5.5531 -0.60431,-1.1605 6.4999,0.0503 6.5528,-4.1646 0.0338,-2.6895 -2.9145,-4.8833 -1.7029,-7.6178 0.94195,-2.126 5.1951,-1.3572 6.2949,-3.5627 1.0335,-2.0725 -0.40906,-5.1256 0.89114,-7.0886 1.1604,-1.7519 5.3659,-2.0624 6.5114,-3.7338 1.3151,-1.9189 -0.75751,-4.5559 0.6038,-6.2513 1.4438,-1.7982 4.8656,-1.0737 6.1618,-2.6351 1.7202,-2.0722 0.41039,-5.4246 2.1371,-7.569 0.92289,-1.1462 6.9356,-0.2583 7.9337,-1.3688 1.542,-1.7156 0.0376,-6.9945 1.3938,-8.714 1.1694,-1.4826 6.057,1.0518 7.3686,-0.10392 1.6608,-1.4633 1.0678,-5.5685 2.3039,-7.2254 1.4197,-1.9031 6.8496,1.8506 8.9597,1.0823 1.3951,-0.50802 0.81793,-6.9705 1.7762,-7.4878 z"
         sodipodi:nodetypes="cssssssssssssssssssssssssssssssssszssssssssssssszc"
         style="color:#000000;fill:#ffffff;fill-rule:evenodd;stroke:#000000;stroke-width:2.33780003"
         inkscape:connector-curvature="0" />
      <path
         id="path5046-4-7-2-5-0-4-8"
         d="m 670.13,-296.86 c 7.5446,-1.894 14.105,-2.0365 22.465,-1.1659 6.2941,0.65547 13.197,-0.80729 13.054,0.0644 -0.71523,4.3651 -0.88336,5.6997 -0.34785,11.368 0.11008,1.1648 -11.922,7.6832 -13.28,9.0088 -12.275,11.976 -14.435,13.043 -32.095,12.769 -10.418,-0.16173 -20.002,3.8339 -23.916,-2.0856 -3.9143,-5.9195 -0.68601,-13.561 8.014,-18.484 8.3248,-4.7115 18.562,-9.5804 26.106,-11.474 z"
         sodipodi:nodetypes="cssssszszc"
         style="color:#000000;fill:url(#linearGradient72);fill-rule:evenodd"
         inkscape:connector-curvature="0" />
    </g>
  </g>
</svg>
