<?xml version="1.0" encoding="UTF-8" standalone="no"?>
<!-- Created with Inkscape (http://www.inkscape.org/) -->

<svg
   xmlns:dc="http://purl.org/dc/elements/1.1/"
   xmlns:cc="http://creativecommons.org/ns#"
   xmlns:rdf="http://www.w3.org/1999/02/22-rdf-syntax-ns#"
   xmlns:svg="http://www.w3.org/2000/svg"
   xmlns="http://www.w3.org/2000/svg"
   xmlns:sodipodi="http://sodipodi.sourceforge.net/DTD/sodipodi-0.dtd"
   xmlns:inkscape="http://www.inkscape.org/namespaces/inkscape"
   width="210mm"
   height="297mm"
   viewBox="0 0 210 297"
   version="1.1"
   id="svg8"
   sodipodi:docname="sheep-head-only.svg"
   inkscape:version="0.92.1 r15371">
  <defs
     id="defs2" />
  <sodipodi:namedview
     id="base"
     pagecolor="#ffffff"
     bordercolor="#666666"
     borderopacity="1.0"
     inkscape:pageopacity="0.0"
     inkscape:pageshadow="2"
     inkscape:zoom="0.98994949"
     inkscape:cx="-94.65786"
     inkscape:cy="1023.9403"
     inkscape:document-units="mm"
     inkscape:current-layer="layer1"
     showgrid="false"
     inkscape:window-width="1920"
     inkscape:window-height="1001"
     inkscape:window-x="-9"
     inkscape:window-y="-9"
     inkscape:window-maximized="1" />
  <metadata
     id="metadata5">
    <rdf:RDF>
      <cc:Work
         rdf:about="">
        <dc:format>image/svg+xml</dc:format>
        <dc:type
           rdf:resource="http://purl.org/dc/dcmitype/StillImage" />
        <dc:title></dc:title>
      </cc:Work>
    </rdf:RDF>
  </metadata>
  <g
     inkscape:label="Layer 1"
     inkscape:groupmode="layer"
     id="layer1">
    <path
       id="head"
       style="fill:#ffffff;stroke:#000000;stroke-width:0.52916789"
       d="m 57.655289,12.979588 c 1.778468,0 3.628846,0.695823 5.316582,1.057274 1.545346,0.330936 1.934775,-0.0081 3.381306,0.626897 1.264505,0.555089 4.181235,0.110351 5.378517,0.855276 1.952993,1.215195 1.380896,2.786824 2.983954,4.528125 0.817687,0.888208 3.53373,0.704881 4.320791,1.705119 0.896111,1.138813 1.020505,3.353247 1.73457,4.679543 0.581287,1.079569 2.710072,2.051103 3.212592,3.171638 0.75728,1.688467 0.170298,3.113348 0.473403,4.906437 0.22166,1.311108 2.049495,2.044902 2.308698,3.454501 0.43405,2.36044 -0.893074,3.026027 -0.893074,5.365566 0,1.008087 1.706397,3.144235 1.630205,4.143311 -0.139475,1.828947 -1.975615,3.075493 -2.391346,4.824458 -0.327533,1.378085 0.926094,3.863003 0.468557,5.184654 -0.431355,1.245966 -2.61556,2.290561 -3.184239,3.452644 -0.695967,1.421954 -0.101529,3.976566 -0.9273,5.26315 -0.898484,1.399984 -3.558866,1.872142 -4.665256,3.032762 -1.496561,1.569748 0.04664,3.363464 -1.566681,4.586184 -0.849258,0.643686 -1.890917,0.175498 -2.914377,0.66907 -0.561681,0.270879 -0.500711,2.44869 -1.174157,3.116831 -0.522207,0.518233 -2.88542,-0.227157 -3.262462,0.03919 -0.703005,0.496751 -1.064603,2.523237 -2.318551,2.847438 -1.212786,0.313541 -3.262261,-1.11682 -4.025795,-0.749076 -1.830972,0.881845 -1.871129,1.782871 -3.691182,1.782871 -1.299656,0 -2.876171,-1.855839 -4.068224,-1.766823 -1.624957,0.121338 -3.386534,0.403393 -4.642131,-0.04427 -0.777931,-0.277336 -1.612892,-2.92036 -1.975394,-3.309587 -0.625345,-0.671578 -3.011704,-0.43565 -3.780466,-0.951305 -1.019962,-0.684143 -1.272006,-2.725515 -2.24978,-3.527191 -0.866088,-0.70999 -2.750289,-0.460802 -3.511811,-1.32495 -0.943066,-1.070163 -0.70926,-3.352317 -1.561695,-4.57643 -0.745576,-1.070698 -2.756321,-1.721932 -3.375071,-2.920824 -0.507105,-0.982379 -0.29747,-3.414789 -0.726272,-4.448933 -0.609479,-1.469701 -2.313323,-2.47888 -2.708261,-4.051578 -0.400127,-1.593576 1.133436,-3.490033 0.922675,-5.161199 -0.185909,-1.474021 -1.866022,-2.877629 -1.866022,-4.397609 0,-1.176597 1.824256,-2.706936 1.725843,-4.199048 -0.132067,-2.002054 -1.178098,-3.301458 -0.660375,-5.034863 0.314784,-1.054023 2.399188,-1.458624 2.653967,-2.318823 0.574149,-1.937912 -0.634977,-2.893421 0.178577,-4.655855 0.458904,-0.99413 2.292008,-1.372116 2.845203,-2.294416 0.835342,-1.392669 0.295862,-3.256636 1.284996,-4.480285 0.930699,-1.151284 3.240745,-1.231591 4.384738,-2.177276 1.091449,-0.902281 1.053966,-2.973077 2.215996,-3.738061 1.450855,-0.954882 3.356974,-0.517536 5.10363,-1.056508 1.306935,-0.4033 1.827734,-2.387612 3.165537,-2.755705 1.87489,-0.515772 4.575369,0.647472 6.450118,0.647472 z"
       sodipodi:nodetypes="sssssssssssssssssssssssssssssssssssssssssssssss"
       inkscape:connector-curvature="0"
       inkscape:label="Head" />
    <g
       id="eyes"
       inkscape:label="Eyes"
       transform="translate(-1.6036174,10.958051)">
      <circle
         r="8.3445044"
         cy="28.575727"
         cx="70.188255"
         id="path5060-6-7-9"
         style="fill:#ffffff;stroke:#000000;stroke-width:0.52916467" />
      <circle
         r="8.3445044"
         cy="28.575727"
         cx="48.590324"
         id="path5068-6-8-0"
         style="fill:#ffffff;stroke:#000000;stroke-width:0.52916467" />
    </g>
    <g
       id="pupils"
       transform="translate(1.8655143,7.210905)">
      <circle
         r="2"
         cy="32.725636"
         cx="66.500938"
         id="path5062-8-8-5"
         style="fill:#000000;stroke:#000000;stroke-width:0.0035" />
      <circle
         r="2"
         cy="32.725636"
         cx="44.90036"
         id="path5070-1-0-0"
         style="fill:#000000;stroke:#000000;stroke-width:0.0035" />
    </g>
    <path
       id="snoot"
       sodipodi:nodetypes="csssssssssssssssssssssssssssssssssszzc"
       style="fill:#000000;stroke-width:0.26458332"
       inkscape:connector-curvature="0"
       d="m 56.524828,76.541965 c -0.394335,-0.03193 -2.788179,-0.897176 -3.378729,-1.151652 -0.44069,-0.189897 -3.382169,-1.755166 -4.570148,-2.670175 -0.52668,-0.405633 -0.358219,-0.566579 -0.07267,-0.622617 0.229711,-0.04508 1.815121,1.01211 3.198283,1.591945 1.990408,0.834469 3.977217,1.303469 4.403725,1.330245 0.336285,0.02111 0.815684,0.166706 1.073944,0.177247 0.616056,0.02516 0.807508,-0.111815 0.811053,-0.165526 0.09832,-1.493149 0.365893,-3.763698 -0.02238,-4.993216 -0.277575,-0.878973 0.221501,-2.365428 -0.01699,-2.947459 -0.295936,-0.722153 -1.22084,-0.586184 -1.646951,-0.957765 -1.389142,-1.211368 -2.89904,-0.944642 -3.909219,-1.324848 -0.516917,-0.194514 -0.851667,-0.03879 -1.077754,0.1855 -0.274955,0.272732 -0.132985,0.667384 -0.676989,0.753215 -0.483844,0.07634 -0.607378,-0.351049 -0.776658,-0.77298 -0.2423,-0.603911 -0.32303,-1.708944 -0.06277,-1.787022 0.196292,-0.05889 0.742659,0.227796 1.41007,0.406109 1.641766,0.438626 4.179094,1.201023 5.229225,1.691084 0.5216,0.243419 1.468649,0.663893 2.171383,0.563774 0.669739,-0.09542 2.10521,-0.911039 2.956189,-0.869394 0.703792,0.03444 5.359665,-2.087668 5.707063,-1.964029 0.426825,0.151861 0.07062,1.001184 -0.0191,1.558502 -0.05562,0.345467 -0.422646,0.624681 -0.526415,0.711147 -0.08588,0.07157 -0.247896,0.04279 -0.527183,-0.218546 -0.262842,-0.245954 -0.631401,-0.727445 -1.08069,-0.606478 -1.338527,0.360363 -4.192852,1.272673 -4.674394,1.673993 -0.474133,0.395102 -1.272699,0.106317 -1.361493,0.920221 -0.06384,0.585152 0.280379,2.621227 0.308795,3.018895 0.06792,0.950807 0.03405,3.735388 0.169786,4.890029 0.01027,0.08728 0.401452,0.268923 1.250342,0.265854 0.502972,-0.0019 1.604909,-0.304086 2.075656,-0.467096 1.237535,-0.428519 2.686314,-1.065053 5.209646,-2.117275 0.167399,-0.0698 0.942895,-0.101785 0.234484,0.391583 -1.445763,1.006872 -5.200915,3.028157 -5.804694,3.175 -1.199779,0.291545 -1.801865,0.439288 -2.186278,0.492258 -0.430795,0.05938 -0.911384,0.108217 -1.358609,0.132167 -0.447225,0.02394 -0.627036,-0.05048 -1.021345,-0.08241 z" />
    <path
       id="hair"
       sodipodi:nodetypes="sssssssssssssssssssssssssssssssssssssssssssssssssssss"
       style="fill:#ffffff;stroke:#000000;stroke-width:0.55409038"
       inkscape:connector-curvature="0"
       d="m 81.887786,21.550966 c 0,0.719825 -1.40671,1.128739 -1.849279,1.800092 -0.21667,0.328692 1.277673,1.796071 0.980784,2.108677 -0.412406,0.434234 -1.832716,-0.635794 -2.462847,-0.241319 -0.378169,0.236747 -0.192561,2.264331 -1.042935,2.225702 -0.932524,-0.04237 -2.097299,-1.633353 -2.958835,-1.243383 -0.735807,0.33311 -0.598197,2.486051 -1.353556,2.580613 -0.944456,0.118245 -1.713521,-1.684284 -2.599504,-1.443593 -0.921147,0.25023 -0.594916,2.486263 -1.53334,2.603077 -0.987081,0.122877 -1.827266,-1.920452 -2.821517,-1.746224 -0.917628,0.160811 -1.087596,2.366407 -2.032423,2.44819 -0.796581,0.06895 -1.758421,-1.757627 -2.557568,-1.688068 -0.959221,0.0835 -1.303073,1.988978 -2.27375,2.004774 -0.828199,0.01349 -1.299237,-1.854253 -2.134844,-1.854253 -0.92157,0 -1.827741,1.941645 -2.763308,1.591628 -0.941123,-0.352108 -1.206712,-1.7603 -2.171118,-1.779456 -0.7942,-0.01579 -1.714791,1.615917 -2.462477,1.428221 -0.73361,-0.18416 -1.12223,-1.854041 -1.850522,-1.977707 -0.548032,-0.09306 -1.603508,1.439307 -2.113942,1.297358 -0.793168,-0.220599 -0.807561,-1.875764 -1.572233,-2.068301 -0.549778,-0.13842 -2.00234,1.231767 -2.499651,1.061058 -0.719667,-0.247028 -0.361342,-2.130663 -1.015154,-2.345319 -0.557477,-0.183031 -1.941803,1.05537 -2.414322,0.876141 -0.548508,-0.208045 -0.322289,-2.065787 -0.764805,-2.229062 -0.974963,-0.359727 -2.177494,-0.03614 -2.452635,-0.08104 -0.628941,-0.102632 0.670587,-1.639517 0.353087,-2.08362 -0.497337,-0.695669 -1.901269,-0.434631 -1.901269,-1.185969 0,-0.703686 1.542388,-0.805471 1.980406,-1.460976 0.271489,-0.406294 -0.589016,-1.740059 -0.191656,-2.133706 0.426508,-0.422566 1.797711,0.402484 2.395669,0.02938 0.548614,-0.342318 0.409787,-1.96686 1.062223,-2.304415 0.735674,-0.380603 1.330166,0.915538 2.227686,0.622141 0.715433,-0.233876 0.687414,-2.060072 1.503151,-2.320052 0.784463,-0.249999 1.47066,0.951124 2.381699,0.796264 0.934588,-0.158861 0.853811,-1.989667 1.897275,-2.200646 0.841586,-0.170156 1.387131,0.873152 2.380958,0.871935 0.666459,-7.94e-4 1.207374,-1.843564 1.937385,-1.899417 0.900139,-0.06886 1.341332,0.867674 2.277481,1.111408 0.648044,0.16873 1.617133,-1.645708 2.337197,-1.642745 0.897043,0.0037 1.533392,1.799114 2.143865,1.799114 0.756153,0 1.447271,-1.735058 2.185803,-1.710822 0.889899,0.02918 1.139507,1.599009 1.999668,1.678384 0.750464,0.06926 1.776333,-1.539319 2.505683,-1.447906 0.71845,0.09004 0.62656,2.296054 1.317731,2.422525 0.786209,0.143836 2.186384,-1.33686 2.943225,-1.179988 0.709903,0.147132 0.317685,2.410142 0.986208,2.593075 0.653812,0.178901 1.866582,-1.393084 2.494862,-1.219332 0.603858,0.166986 0.447384,2.564209 1.009597,2.762514 0.69125,0.243925 2.104575,-1.223063 2.750344,-1.014465 0.770096,0.248803 -0.178718,2.348309 0.454713,2.675731 0.674872,0.348985 2.299758,-0.432832 2.90195,-0.199861 0.690139,0.266965 -1.233885,2.113095 -0.782717,2.565691 0.678603,0.680773 3.167327,-0.01119 3.167327,0.747739 z" />
  </g>
</svg>
