<?xml version="1.0" encoding="UTF-8" standalone="no"?>
<!-- Created with Inkscape (http://www.inkscape.org/) -->

<svg
   xmlns:dc="http://purl.org/dc/elements/1.1/"
   xmlns:cc="http://creativecommons.org/ns#"
   xmlns:rdf="http://www.w3.org/1999/02/22-rdf-syntax-ns#"
   xmlns:svg="http://www.w3.org/2000/svg"
   xmlns="http://www.w3.org/2000/svg"
   xmlns:xlink="http://www.w3.org/1999/xlink"
   xmlns:sodipodi="http://sodipodi.sourceforge.net/DTD/sodipodi-0.dtd"
   xmlns:inkscape="http://www.inkscape.org/namespaces/inkscape"
   width="210mm"
   height="297mm"
   viewBox="0 0 210 297"
   version="1.1"
   id="svg8"
   sodipodi:docname="sheep-head-2.svg"
   inkscape:version="0.92.1 r15371">
  <defs
     id="defs2">
    <linearGradient
       inkscape:collect="always"
       x1="771.08"
       x2="761.15"
       gradientTransform="matrix(.44298 -.43220 .58013 .098788 547.99 76.171)"
       y1="-380.29"
       gradientUnits="userSpaceOnUse"
       y2="-327.99"
       id="linearGradient4254">
      <stop
         offset="0"
         style="stop-color:#edd1d1"
         id="stop4266-0-9" />
      <stop
         offset="1"
         style="stop-color:#ffffff"
         id="stop4268-2-5" />
    </linearGradient>
    <linearGradient
       inkscape:collect="always"
       xlink:href="#linearGradient4254"
       id="linearGradient70"
       gradientUnits="userSpaceOnUse"
       gradientTransform="matrix(0.44298,-0.4322,0.58013,0.098788,547.99,76.171)"
       x1="771.08"
       y1="-380.29"
       x2="761.15"
       y2="-327.99" />
    <linearGradient
       inkscape:collect="always"
       xlink:href="#linearGradient4254"
       id="linearGradient72"
       gradientUnits="userSpaceOnUse"
       gradientTransform="matrix(0.44298,-0.4322,0.58013,0.098788,547.99,76.171)"
       x1="771.08"
       y1="-380.29"
       x2="761.15"
       y2="-327.99" />
  </defs>
  <sodipodi:namedview
     id="base"
     pagecolor="#ffffff"
     bordercolor="#666666"
     borderopacity="1.0"
     inkscape:pageopacity="0.0"
     inkscape:pageshadow="2"
     inkscape:zoom="0.98994949"
     inkscape:cx="261.92599"
     inkscape:cy="1023.9403"
     inkscape:document-units="mm"
     inkscape:current-layer="layer1"
     showgrid="false"
     inkscape:window-width="1536"
     inkscape:window-height="801"
     inkscape:window-x="-8"
     inkscape:window-y="-8"
     inkscape:window-maximized="1" />
  <metadata
     id="metadata5">
    <rdf:RDF>
      <cc:Work
         rdf:about="">
        <dc:format>image/svg+xml</dc:format>
        <dc:type
           rdf:resource="http://purl.org/dc/dcmitype/StillImage" />
        <dc:title></dc:title>
      </cc:Work>
    </rdf:RDF>
  </metadata>
  <g
     inkscape:label="Layer 1"
     inkscape:groupmode="layer"
     id="layer1">
    <g
       id="g4122-5-5-4"
       transform="matrix(-0.03083666,0.26278046,0.26278046,0.03083666,183.54948,-155.04548)"
       inkscape:transform-center-x="-5.6469411"
       inkscape:transform-center-y="-12.120428">
      <path
         id="path5046-4-7-2-5-6-5-8"
         d="m 637.93,-318.14 c 0.95829,-0.51727 5.9891,1.7811 9.1545,0.78632 1.7094,-0.53718 1.5259,-5.9856 3.465,-6.7355 1.9974,-0.7725 5.2724,2.7151 7.6915,2.5086 2.6923,-0.22984 4.2752,-4.7327 6.9766,-5.3046 2.6565,-0.56234 4.3312,2.9464 7.3212,4.1489 0.99273,0.39925 3.8096,-3.652 7.3884,-3.2039 1.7861,0.22365 2.087,3.924 4.947,5.4101 1.8174,0.94436 5.8041,-1.8294 8.9211,0.009 3.5155,2.0744 -0.36607,5.6091 3.4996,6.8979 2.5876,0.86266 6.1915,-1.0428 7.8502,0.0127 1.4973,0.95284 0.77842,5.2628 1.7281,6.1436 1.3526,1.2545 6.0865,0.32613 6.783,1.435 1.7772,2.8293 -2.1442,8.3506 -3.4118,19.094 -0.277,2.3477 -12.899,19.533 -22.97,29.121 -1.59,1.5138 -5.7746,-0.80438 -7.0214,0.45805 -2.4132,2.4434 -1.9669,6.7478 -2.6048,7.1396 -2.8294,1.7377 -7.0071,-1.2267 -9.7131,0.47707 -2.3622,1.4873 -3.2667,7.7333 -5.5453,8.158 -2.9003,0.54056 -5.933,-2.4613 -8.3758,-1.4587 -2.5361,1.0409 -3.7324,6.9688 -6.0215,7.4263 -3.0636,0.61229 -6.436,-2.4793 -8.8658,-1.7685 -3.4098,0.99754 -4.2579,6.812 -7.1226,7.0146 -3.0684,0.21701 -4.9807,-3.1135 -7.9752,-2.86 -2.2157,0.18759 -6.4966,4.134 -8.8663,4.3425 -1.9552,0.17207 -3.3656,-3.1912 -5.5374,-3.0643 -3.4473,0.20145 -3.9348,5.5502 -6.0793,5.1266 -0.28995,-0.0573 -2.4037,-6.7855 -3.9261,-6.2661 -1.4113,0.48151 -5.8727,6.474 -6.9793,6.1559 -2.0157,-0.57955 -2.1013,-5.9019 -3.0573,-5.5032 -1.0879,0.45374 -5.212,2.3931 -6.3378,1.5426 -1.6531,-1.2488 5.2763,-7.0315 3.9284,-8.3452 -0.38555,-0.37578 -6.7435,-0.0743 -7.2989,-0.68075 -0.68171,-0.74448 5.8184,-5.3174 5.0484,-6.2249 -1.793,-2.1132 -3.5749,-4.3926 -4.1792,-5.5531 -0.60431,-1.1605 6.4999,0.0503 6.5528,-4.1646 0.0338,-2.6895 -2.9145,-4.8833 -1.7029,-7.6178 0.94195,-2.126 5.1951,-1.3572 6.2949,-3.5627 1.0335,-2.0725 -0.40906,-5.1256 0.89114,-7.0886 1.1604,-1.7519 5.3659,-2.0624 6.5114,-3.7338 1.3151,-1.9189 -0.75751,-4.5559 0.6038,-6.2513 1.4438,-1.7982 4.8656,-1.0737 6.1618,-2.6351 1.7202,-2.0722 0.41039,-5.4246 2.1371,-7.569 0.92289,-1.1462 6.9356,-0.2583 7.9337,-1.3688 1.542,-1.7156 0.0376,-6.9945 1.3938,-8.714 1.1694,-1.4826 6.057,1.0518 7.3686,-0.10392 1.6608,-1.4633 1.0678,-5.5685 2.3039,-7.2254 1.4197,-1.9031 6.8496,1.8506 8.9597,1.0823 1.3951,-0.50802 0.81793,-6.9705 1.7762,-7.4878 z"
         sodipodi:nodetypes="cssssssssssssssssssssssssssssssssszssssssssssssszc"
         style="color:#000000;fill:#ffffff;fill-rule:evenodd;stroke:#000000;stroke-width:2.33780003"
         inkscape:connector-curvature="0" />
      <path
         id="path5046-4-7-2-5-0-4-8-6"
         d="m 670.13,-296.86 c 7.5446,-1.894 14.105,-2.0365 22.465,-1.1659 6.2941,0.65547 13.197,-0.80729 13.054,0.0644 -0.71523,4.3651 -0.88336,5.6997 -0.34785,11.368 0.11008,1.1648 -11.922,7.6832 -13.28,9.0088 -12.275,11.976 -14.435,13.043 -32.095,12.769 -10.418,-0.16173 -20.002,3.8339 -23.916,-2.0856 -3.9143,-5.9195 -0.68601,-13.561 8.014,-18.484 8.3248,-4.7115 18.562,-9.5804 26.106,-11.474 z"
         sodipodi:nodetypes="cssssszszc"
         style="color:#000000;fill:url(#linearGradient70);fill-rule:evenodd"
         inkscape:connector-curvature="0" />
    </g>
    <g
       id="g4122-5-5"
       transform="matrix(0.03159735,0.26269009,-0.26269009,0.03159735,-65.2941,-154.49461)"
       inkscape:transform-center-x="6.1064398"
       inkscape:transform-center-y="-11.770392">
      <path
         id="path5046-4-7-2-5-6-5"
         d="m 637.93,-318.14 c 0.95829,-0.51727 5.9891,1.7811 9.1545,0.78632 1.7094,-0.53718 1.5259,-5.9856 3.465,-6.7355 1.9974,-0.7725 5.2724,2.7151 7.6915,2.5086 2.6923,-0.22984 4.2752,-4.7327 6.9766,-5.3046 2.6565,-0.56234 4.3312,2.9464 7.3212,4.1489 0.99273,0.39925 3.8096,-3.652 7.3884,-3.2039 1.7861,0.22365 2.087,3.924 4.947,5.4101 1.8174,0.94436 5.8041,-1.8294 8.9211,0.009 3.5155,2.0744 -0.36607,5.6091 3.4996,6.8979 2.5876,0.86266 6.1915,-1.0428 7.8502,0.0127 1.4973,0.95284 0.77842,5.2628 1.7281,6.1436 1.3526,1.2545 6.0865,0.32613 6.783,1.435 1.7772,2.8293 -2.1442,8.3506 -3.4118,19.094 -0.277,2.3477 -12.899,19.533 -22.97,29.121 -1.59,1.5138 -5.7746,-0.80438 -7.0214,0.45805 -2.4132,2.4434 -1.9669,6.7478 -2.6048,7.1396 -2.8294,1.7377 -7.0071,-1.2267 -9.7131,0.47707 -2.3622,1.4873 -3.2667,7.7333 -5.5453,8.158 -2.9003,0.54056 -5.933,-2.4613 -8.3758,-1.4587 -2.5361,1.0409 -3.7324,6.9688 -6.0215,7.4263 -3.0636,0.61229 -6.436,-2.4793 -8.8658,-1.7685 -3.4098,0.99754 -4.2579,6.812 -7.1226,7.0146 -3.0684,0.21701 -4.9807,-3.1135 -7.9752,-2.86 -2.2157,0.18759 -6.4966,4.134 -8.8663,4.3425 -1.9552,0.17207 -3.3656,-3.1912 -5.5374,-3.0643 -3.4473,0.20145 -3.9348,5.5502 -6.0793,5.1266 -0.28995,-0.0573 -2.4037,-6.7855 -3.9261,-6.2661 -1.4113,0.48151 -5.8727,6.474 -6.9793,6.1559 -2.0157,-0.57955 -2.1013,-5.9019 -3.0573,-5.5032 -1.0879,0.45374 -5.212,2.3931 -6.3378,1.5426 -1.6531,-1.2488 5.2763,-7.0315 3.9284,-8.3452 -0.38555,-0.37578 -6.7435,-0.0743 -7.2989,-0.68075 -0.68171,-0.74448 5.8184,-5.3174 5.0484,-6.2249 -1.793,-2.1132 -3.5749,-4.3926 -4.1792,-5.5531 -0.60431,-1.1605 6.4999,0.0503 6.5528,-4.1646 0.0338,-2.6895 -2.9145,-4.8833 -1.7029,-7.6178 0.94195,-2.126 5.1951,-1.3572 6.2949,-3.5627 1.0335,-2.0725 -0.40906,-5.1256 0.89114,-7.0886 1.1604,-1.7519 5.3659,-2.0624 6.5114,-3.7338 1.3151,-1.9189 -0.75751,-4.5559 0.6038,-6.2513 1.4438,-1.7982 4.8656,-1.0737 6.1618,-2.6351 1.7202,-2.0722 0.41039,-5.4246 2.1371,-7.569 0.92289,-1.1462 6.9356,-0.2583 7.9337,-1.3688 1.542,-1.7156 0.0376,-6.9945 1.3938,-8.714 1.1694,-1.4826 6.057,1.0518 7.3686,-0.10392 1.6608,-1.4633 1.0678,-5.5685 2.3039,-7.2254 1.4197,-1.9031 6.8496,1.8506 8.9597,1.0823 1.3951,-0.50802 0.81793,-6.9705 1.7762,-7.4878 z"
         sodipodi:nodetypes="cssssssssssssssssssssssssssssssssszssssssssssssszc"
         style="color:#000000;fill:#ffffff;fill-rule:evenodd;stroke:#000000;stroke-width:2.33780003"
         inkscape:connector-curvature="0" />
      <path
         id="path5046-4-7-2-5-0-4-8"
         d="m 670.13,-296.86 c 7.5446,-1.894 14.105,-2.0365 22.465,-1.1659 6.2941,0.65547 13.197,-0.80729 13.054,0.0644 -0.71523,4.3651 -0.88336,5.6997 -0.34785,11.368 0.11008,1.1648 -11.922,7.6832 -13.28,9.0088 -12.275,11.976 -14.435,13.043 -32.095,12.769 -10.418,-0.16173 -20.002,3.8339 -23.916,-2.0856 -3.9143,-5.9195 -0.68601,-13.561 8.014,-18.484 8.3248,-4.7115 18.562,-9.5804 26.106,-11.474 z"
         sodipodi:nodetypes="cssssszszc"
         style="color:#000000;fill:url(#linearGradient72);fill-rule:evenodd"
         inkscape:connector-curvature="0" />
    </g>
    <path
       id="path4205"
       style="fill:#ffffff;stroke:#000000;stroke-width:0.52916789"
       d="m 59.258906,2.021537 c 1.778468,0 3.628846,0.6958236 5.316582,1.0572747 1.545346,0.3309354 1.934775,-0.00808 3.381306,0.6268962 1.264505,0.555089 4.181235,0.1103513 5.378517,0.8552764 1.952993,1.2151948 1.380896,2.7868244 2.983954,4.5281252 0.817687,0.8882074 3.53373,0.7048808 4.320791,1.7051185 0.896111,1.138813 1.020505,3.353247 1.73457,4.679543 0.581287,1.079569 2.710072,2.051103 3.212592,3.171638 0.75728,1.688467 0.170298,3.113348 0.473403,4.906437 0.22166,1.311108 2.049495,2.044902 2.308698,3.454501 0.43405,2.36044 -0.893074,3.026027 -0.893074,5.365566 0,1.008087 1.706397,3.144235 1.630205,4.143311 -0.139475,1.828947 -1.975615,3.075493 -2.391346,4.824458 -0.327533,1.378085 0.926094,3.863003 0.468557,5.184654 -0.431355,1.245966 -2.61556,2.290561 -3.184239,3.452644 -0.695967,1.421954 -0.101529,3.976566 -0.9273,5.26315 -0.898484,1.399984 -3.558866,1.872142 -4.665256,3.032762 -1.496561,1.569748 0.04664,3.363464 -1.566681,4.586184 -0.849258,0.643686 -1.890917,0.175498 -2.914377,0.66907 -0.561681,0.270879 -0.500711,2.44869 -1.174157,3.116831 -0.522207,0.518233 -2.88542,-0.227157 -3.262462,0.03919 -0.703005,0.496751 -1.064603,2.523237 -2.318551,2.847438 -1.212786,0.313541 -3.262261,-1.11682 -4.025795,-0.749076 -1.830972,0.881845 -1.871129,1.782871 -3.691182,1.782871 -1.299656,0 -2.876171,-1.855839 -4.068224,-1.766823 -1.624957,0.121338 -3.386534,0.403393 -4.642131,-0.04427 -0.777931,-0.277336 -1.612892,-2.92036 -1.975394,-3.309587 -0.625345,-0.671578 -3.011704,-0.43565 -3.780466,-0.951305 -1.019962,-0.684143 -1.272006,-2.725515 -2.24978,-3.527191 -0.866088,-0.70999 -2.750289,-0.460802 -3.511811,-1.32495 -0.943066,-1.070163 -0.70926,-3.352317 -1.561695,-4.57643 -0.745576,-1.070698 -2.756321,-1.721932 -3.375071,-2.920824 -0.507105,-0.982379 -0.29747,-3.414789 -0.726272,-4.448933 -0.609479,-1.469701 -2.313323,-2.47888 -2.708261,-4.051578 -0.400127,-1.593576 1.133436,-3.490033 0.922675,-5.161199 -0.185909,-1.474021 -1.866022,-2.877629 -1.866022,-4.397609 0,-1.176597 1.824256,-2.706936 1.725843,-4.199048 -0.132067,-2.002054 -1.178098,-3.301458 -0.660375,-5.034863 0.314784,-1.054023 2.399188,-1.458624 2.653967,-2.318823 0.574149,-1.937912 -0.634977,-2.893421 0.178577,-4.655855 0.458904,-0.99413 2.292008,-1.372116 2.845203,-2.294416 0.835342,-1.392669 0.295862,-3.256636 1.284996,-4.480285 0.930699,-1.1512832 3.240745,-1.2315902 4.384738,-2.1772758 1.091449,-0.9022809 1.053966,-2.9730772 2.215996,-3.7380605 1.450855,-0.9548822 3.356974,-0.5175366 5.10363,-1.0565084 1.306935,-0.4032999 1.827734,-2.3876118 3.165537,-2.7557049 1.87489,-0.51577154 4.575369,0.6474722 6.450118,0.6474722 z"
       sodipodi:nodetypes="sssssssssssssssssssssssssssssssssssssssssssssss"
       inkscape:connector-curvature="0" />
    <circle
       style="fill:#ffffff;stroke:#000000;stroke-width:0.52916467"
       id="path5060-6-7-9"
       cx="70.188255"
       cy="28.575727"
       r="8.3445044" />
    <circle
       style="fill:#ffffff;stroke:#000000;stroke-width:0.52916467"
       id="path5068-6-8-0"
       cx="48.590324"
       cy="28.575727"
       r="8.3445044" />
    <g
       id="sheep-head-eye-pupils"
       transform="translate(3.4691315,-3.7471457)">
      <circle
         r="2"
         cy="32.725636"
         cx="66.500938"
         id="path5062-8-8-5"
         style="fill:#000000;stroke:#000000;stroke-width:0.0035" />
      <circle
         r="2"
         cy="32.725636"
         cx="44.90036"
         id="path5070-1-0-0"
         style="fill:#000000;stroke:#000000;stroke-width:0.0035" />
    </g>
    <path
       id="path4192"
       sodipodi:nodetypes="csssssssssssssssssssssssssssssssssszzc"
       style="fill:#000000;stroke-width:0.26458332"
       inkscape:connector-curvature="0"
       d="m 58.128445,65.583914 c -0.394335,-0.03193 -2.788179,-0.897176 -3.378729,-1.151652 -0.44069,-0.189897 -3.382169,-1.755166 -4.570148,-2.670175 -0.52668,-0.405633 -0.358219,-0.566579 -0.07267,-0.622617 0.229711,-0.04508 1.815121,1.01211 3.198283,1.591945 1.990408,0.834469 3.977217,1.303469 4.403725,1.330245 0.336285,0.02111 0.815684,0.166706 1.073944,0.177247 0.616056,0.02516 0.807508,-0.111815 0.811053,-0.165526 0.09832,-1.493149 0.365893,-3.763698 -0.02238,-4.993216 -0.277575,-0.878973 0.221501,-2.365428 -0.01699,-2.947459 -0.295936,-0.722153 -1.22084,-0.586184 -1.646951,-0.957765 -1.389142,-1.211368 -2.89904,-0.944642 -3.909219,-1.324848 -0.516917,-0.194514 -0.851667,-0.03879 -1.077754,0.1855 -0.274955,0.272732 -0.132985,0.667384 -0.676989,0.753215 -0.483844,0.07634 -0.607378,-0.351049 -0.776658,-0.77298 -0.2423,-0.603911 -0.32303,-1.708944 -0.06277,-1.787022 0.196292,-0.05889 0.742659,0.227796 1.41007,0.406109 1.641766,0.438626 4.179094,1.201023 5.229225,1.691084 0.5216,0.243419 1.468649,0.663893 2.171383,0.563774 0.669739,-0.09542 2.10521,-0.911039 2.956189,-0.869394 0.703792,0.03444 5.359665,-2.087668 5.707063,-1.964029 0.426825,0.151861 0.07062,1.001184 -0.0191,1.558502 -0.05562,0.345467 -0.422646,0.624681 -0.526415,0.711147 -0.08588,0.07157 -0.247896,0.04279 -0.527183,-0.218546 -0.262842,-0.245954 -0.631401,-0.727445 -1.08069,-0.606478 -1.338527,0.360363 -4.192852,1.272673 -4.674394,1.673993 -0.474133,0.395102 -1.272699,0.106317 -1.361493,0.920221 -0.06384,0.585152 0.280379,2.621227 0.308795,3.018895 0.06792,0.950807 0.03405,3.735388 0.169786,4.890029 0.01027,0.08728 0.401452,0.268923 1.250342,0.265854 0.502972,-0.0019 1.604909,-0.304086 2.075656,-0.467096 1.237535,-0.428519 2.686314,-1.065053 5.209646,-2.117275 0.167399,-0.0698 0.942895,-0.101785 0.234484,0.391583 -1.445763,1.006872 -5.200915,3.028157 -5.804694,3.175 -1.199779,0.291545 -1.801865,0.439288 -2.186278,0.492258 -0.430795,0.05938 -0.911384,0.108217 -1.358609,0.132167 -0.447225,0.02394 -0.627036,-0.05048 -1.021345,-0.08241 z" />
    <path
       id="path4208"
       sodipodi:nodetypes="sssssssssssssssssssssssssssssssssssssssssssssssssssss"
       style="fill:#ffffff;stroke:#000000;stroke-width:0.55409038"
       inkscape:connector-curvature="0"
       d="m 83.491403,10.592915 c 0,0.719825 -1.40671,1.128739 -1.849279,1.800092 -0.21667,0.328692 1.277673,1.796071 0.980784,2.108677 -0.412406,0.434234 -1.832716,-0.635794 -2.462847,-0.241319 -0.378169,0.236747 -0.192561,2.264331 -1.042935,2.225702 -0.932524,-0.04237 -2.097299,-1.633353 -2.958835,-1.243383 -0.735807,0.33311 -0.598197,2.486051 -1.353556,2.580613 -0.944456,0.118245 -1.713521,-1.684284 -2.599504,-1.443593 -0.921147,0.25023 -0.594916,2.486263 -1.53334,2.603077 -0.987081,0.122877 -1.827266,-1.920452 -2.821517,-1.746224 -0.917628,0.160811 -1.087596,2.366407 -2.032423,2.44819 -0.796581,0.06895 -1.758421,-1.757627 -2.557568,-1.688068 -0.959221,0.0835 -1.303073,1.988978 -2.27375,2.004774 -0.828199,0.01349 -1.299237,-1.854253 -2.134844,-1.854253 -0.92157,0 -1.827741,1.941645 -2.763308,1.591628 -0.941123,-0.352108 -1.206712,-1.7603 -2.171118,-1.779456 -0.7942,-0.01579 -1.714791,1.615917 -2.462477,1.428221 -0.73361,-0.18416 -1.12223,-1.854041 -1.850522,-1.977707 -0.548032,-0.09306 -1.603508,1.439307 -2.113942,1.297358 -0.793168,-0.220599 -0.807561,-1.875764 -1.572233,-2.068301 -0.549778,-0.13842 -2.00234,1.231767 -2.499651,1.061058 -0.719667,-0.247028 -0.361342,-2.130663 -1.015154,-2.345319 -0.557477,-0.183031 -1.941803,1.05537 -2.414322,0.876141 -0.548508,-0.208045 -0.322289,-2.065787 -0.764805,-2.229062 -0.974963,-0.359727 -2.177494,-0.03614 -2.452635,-0.08104 -0.628941,-0.102632 0.670587,-1.639517 0.353087,-2.08362 -0.497337,-0.695669 -1.901269,-0.434631 -1.901269,-1.185969 0,-0.7036855 1.542388,-0.8054707 1.980406,-1.460976 0.271489,-0.4062941 -0.589016,-1.7400587 -0.191656,-2.1337058 0.426508,-0.422566 1.797711,0.4024842 2.395669,0.029377 0.548614,-0.3423179 0.409787,-1.9668595 1.062223,-2.3044149 0.735674,-0.3806032 1.330166,0.9155377 2.227686,0.6221412 0.715433,-0.2338758 0.687414,-2.0600723 1.503151,-2.3200518 0.784463,-0.2499995 1.47066,0.9511241 2.381699,0.7962635 0.934588,-0.1588611 0.853811,-1.9896667 1.897275,-2.2006454 0.841586,-0.1701562 1.387131,0.8731514 2.380958,0.8719344 0.666459,-7.938e-4 1.207374,-1.84356376 1.937385,-1.8994173 0.900139,-0.0688605 1.341332,0.8676746 2.277481,1.1114087 0.648044,0.1687301 1.617133,-1.64570828 2.337197,-1.64274495 0.897043,0.003651 1.533392,1.79911375 2.143865,1.79911375 0.756153,0 1.447271,-1.73505812 2.185803,-1.71082229 0.889899,0.0291809 1.139507,1.59900939 1.999668,1.67838439 0.750464,0.069255 1.776333,-1.53931939 2.505683,-1.44790585 0.71845,0.0900404 0.62656,2.29605415 1.317731,2.42252495 0.786209,0.1438355 2.186384,-1.3368602 2.943225,-1.1799887 0.709903,0.1471321 0.317685,2.4101425 0.986208,2.5930754 0.653812,0.1789006 1.866582,-1.3930842 2.494862,-1.2193323 0.603858,0.1669865 0.447384,2.5642093 1.009597,2.7625145 0.69125,0.2439247 2.104575,-1.2230629 2.750344,-1.0144654 0.770096,0.2488036 -0.178718,2.3483094 0.454713,2.6757313 0.674872,0.3489854 2.299758,-0.4328319 2.90195,-0.199861 0.690139,0.2669646 -1.233885,2.1130948 -0.782717,2.565691 0.678603,0.6807726 3.167327,-0.011192 3.167327,0.7477386 z" />
  </g>
</svg>
